<?xml version="1.0" encoding="UTF-8"?>
<svg id="Capa_2" xmlns="http://www.w3.org/2000/svg" version="1.1" viewBox="0 0 384 512">
  <!-- Generator: Adobe Illustrator 29.0.0, SVG Export Plug-In . SVG Version: 2.1.0 Build 186)  -->
  <defs>
    <style>
      .st0 {
        fill: #272727;
      }
    </style>
  </defs>
  <path class="st0" d="M376.6,84c11.3-13.6,9.5-33.8-4.1-45.1s-33.8-9.5-45.1,4.1l-135.4,162.5L56.6,43c-11.3-13.6-31.5-15.4-45.1-4.1-13.6,11.3-15.4,31.5-4.1,45.1l142.9,171.5L7.4,427c-11.3,13.6-9.5,33.8,4.1,45.1,13.6,11.3,33.8,9.5,45.1-4.1l135.4-162.5,135.4,162.5c11.3,13.6,31.5,15.4,45.1,4.1s15.4-31.5,4.1-45.1l-142.9-171.5,142.9-171.5Z"/>
</svg>